<svg width="57" height="44" viewBox="0 0 57 44" fill="none" xmlns="http://www.w3.org/2000/svg">
<path d="M47.5995 17.0933C50.5621 20.5973 49.9461 24.8853 49.9461 28.6667C49.9461 39.0827 35.9008 42 28.6661 42C21.4315 42 7.38615 39.0827 7.38615 28.6667C7.38615 24.8853 6.77015 20.5973 9.73281 17.0933M47.5995 17.0933C47.0795 16.48 46.4528 15.8933 45.6901 15.3333M47.5995 17.0933C49.4661 18.168 49.9435 14.1467 49.9461 12.832V7.83467C49.9461 3.50133 46.9675 2 44.4128 2C41.8608 2 36.7515 6.168 35.0501 6.168C33.0075 6.168 32.6128 5.74933 28.6661 5.74933C24.7195 5.74933 24.3248 6.168 22.2821 6.168C20.5808 6.168 15.4715 2 12.9195 2C10.3648 2 7.38615 3.50133 7.38615 7.83467V12.8347C7.39148 14.1467 7.86615 18.168 9.73281 17.0933M9.73281 17.0933C10.2528 16.48 10.8795 15.8933 11.6421 15.3333" stroke="#3D3D3D" stroke-width="3" stroke-linecap="round"/>
<path d="M30.8701 31.3331C30.8701 31.7945 29.9074 32.1678 28.7181 32.1678C27.5314 32.1678 26.5688 31.7945 26.5688 31.3331C26.5688 30.8718 27.5314 30.5011 28.7181 30.5011C29.9074 30.5011 30.8701 30.8745 30.8701 31.3331ZM38.0008 24.9171C38.0008 26.0665 37.4221 26.9998 36.7101 26.9998C35.9981 26.9998 35.4194 26.0665 35.4194 24.9171C35.4194 23.7651 35.9981 22.8345 36.7101 22.8345C37.4221 22.8345 38.0008 23.7705 38.0008 24.9171ZM22.0008 24.9171C22.0008 26.0665 21.4221 26.9998 20.7101 26.9998C19.9981 26.9998 19.4194 26.0665 19.4194 24.9171C19.4194 23.7651 19.9981 22.8345 20.7101 22.8345C21.4221 22.8345 22.0008 23.7705 22.0008 24.9171Z" stroke="#3D3D3D" stroke-width="3"/>
<path d="M55.3333 29.9173C54.0453 29.0827 48.4533 27 46.3013 27M51.032 36.584C49.7413 35.7493 46.7307 33.6667 44.5787 33.6667M2 29.9173C3.29067 29.0827 8.88 27 11.032 27M6.30133 36.584C7.592 35.7493 10.6027 33.6667 12.7547 33.6667" stroke="#3D3D3D" stroke-width="3" stroke-linecap="round"/>
</svg>
