<svg width="81" height="80" viewBox="0 0 81 80" fill="none" xmlns="http://www.w3.org/2000/svg">
<path d="M31.4728 36.1675C31.1321 36.168 30.7915 36.184 30.4521 36.2155V39.4893H31.6183C32.5766 39.4893 32.9805 39.0036 32.9805 37.8673C32.9805 36.9129 32.7247 36.1675 31.4728 36.1675Z" fill="white"/>
<path d="M53.3827 26.6602V0H26.6965V26.6602H0V53.3398H26.6965V80H53.3827V53.3398H80.0714V26.6602H53.3827ZM9.25769 45.408H3.888V34.5946H9.12783V36.3464H5.98133V38.9397H8.82136V40.6759H5.98133V43.7043H9.25899L9.25769 45.408ZM19.1231 45.408H17.1609V38.4047H17.0947L15.0676 42.5212L13.0236 38.4216V45.408H10.9796V34.5946H12.9418L15.0676 38.6956L17.1609 34.5946H19.1244L19.1231 45.408ZM26.6368 45.408H21.2684V34.5946H26.5082V36.3464H23.3578V38.9397H26.2005V40.6759H23.3578V43.7043H26.6368V45.408ZM35.14 45.408H32.9519L31.9597 41.6135C31.8792 41.3057 31.8143 41.1603 31.539 41.1603H30.4521V45.408H28.3587V34.6595C29.3663 34.5529 30.3791 34.5039 31.3923 34.5128C33.5986 34.5128 35.0413 35.5192 35.0413 37.7372C35.0413 39.2968 34.4089 40.1214 33.4505 40.4954V40.5123C33.6791 40.5772 33.7596 40.7396 33.8245 41.0136L35.14 45.408ZM43.9666 40.6876C43.9666 43.0394 43.3822 45.5859 40.4487 45.5859C37.445 45.5859 36.4555 42.6848 36.4555 40.024C36.4555 37.3333 37.545 34.4154 40.6097 34.4154C41.7603 34.4154 42.6186 34.8881 43.4497 35.7127L42.2966 37.2528C41.8265 36.6698 41.4213 36.201 40.5785 36.201C38.7787 36.201 38.6475 38.6956 38.6475 40.011C38.6475 41.3395 38.6956 43.9159 40.511 43.9159C41.9057 43.9159 42.0667 42.6524 42.0667 41.5317V41.1447H40.5941V39.428H43.9666V40.6876ZM51.1387 45.408H45.769V34.5946H51.0101V36.3464H47.8585V38.9397H50.7011V40.6759H47.8585V43.7043H51.1387V45.408ZM60.2561 45.408H58.4238L54.9514 38.7306H54.9033V45.408H52.8593V34.5946H54.8865L58.1992 40.998H58.229V34.5946H60.2561V45.408ZM66.1323 45.5859C63.1481 45.5859 62.0768 42.9446 62.0768 40.0097C62.0768 37.2346 63.2299 34.4141 66.231 34.4141C67.4945 34.4141 68.3217 34.9842 69.1528 35.9711L67.901 37.4489C67.4322 36.7334 66.9946 36.1997 66.1972 36.1997C64.7181 36.1997 64.2636 38.0631 64.2636 40.0097C64.2636 41.4694 64.5571 43.8172 66.244 43.8172C67.1244 43.8172 67.6075 43.2835 68.1425 42.5693L69.2139 44.0938C68.4996 44.9691 67.4608 45.5859 66.131 45.5846L66.1323 45.5859ZM74.5056 41.2746V45.408H72.4279V41.3876L69.6034 34.5933H71.8435L73.4836 39.5215L75.1212 34.5933H77.2483L74.5069 41.2733L74.5056 41.2746Z" fill="white"/>
</svg>
