<svg width="85" height="77" viewBox="0 0 85 77" fill="none" xmlns="http://www.w3.org/2000/svg">
<path d="M76.6667 69H84.3333V76.6667H0V69H7.66667V3.83333C7.66667 2.81667 8.07053 1.84165 8.78942 1.12276C9.50831 0.403868 10.4833 0 11.5 0H72.8333C73.85 0 74.825 0.403868 75.5439 1.12276C76.2628 1.84165 76.6667 2.81667 76.6667 3.83333V69ZM38.3333 23H30.6667V30.6667H38.3333V38.3333H46V30.6667H53.6667V23H46V15.3333H38.3333V23ZM49.8333 69H57.5V46H26.8333V69H34.5V53.6667H49.8333V69Z" fill="#FA6900"/>
</svg>
