<svg width="49" height="44" viewBox="0 0 49 44" fill="none" xmlns="http://www.w3.org/2000/svg">
<path d="M21.9985 4.5H26.9985M41.9985 22C40.331 35.3325 36.166 42 29.4985 42H19.4985C12.831 42 8.66603 35.3325 6.99854 22" stroke="#3D3D3D" stroke-width="3" stroke-linecap="round" stroke-linejoin="round"/>
<path d="M24.4988 37V42M19.4988 19.5V19.525M29.4988 19.5V19.525M21.9988 32C21.9988 33.6675 22.8313 34.5 24.4988 34.5C26.1663 34.5 26.9988 33.6675 26.9988 32H21.9988ZM6.9988 2L21.9988 4.425L6.4038 21.145C5.96572 21.6374 5.35416 21.9412 4.69713 21.993C4.0401 22.0447 3.38853 21.8403 2.8788 21.4225C2.5331 21.1412 2.27323 20.7686 2.12872 20.347C1.98421 19.9254 1.96085 19.4717 2.0613 19.0375L6.9988 2ZM41.9988 2L26.9988 4.425L42.5938 21.145C43.4888 22.165 45.0663 22.29 46.1188 21.4225C46.4645 21.1412 46.7244 20.7686 46.8689 20.347C47.0134 19.9254 47.0367 19.4717 46.9363 19.0375L41.9988 2Z" stroke="#3D3D3D" stroke-width="3" stroke-linecap="round" stroke-linejoin="round"/>
</svg>
