<svg width="56" height="44" viewBox="0 0 56 44" fill="none" xmlns="http://www.w3.org/2000/svg">
<path d="M18.08 32L38.08 12M2 38C2 39.0595 2.42033 40.0757 3.16874 40.8256C3.91716 41.5755 4.93252 41.9979 5.992 42H50.008C51.0675 41.9979 52.0828 41.5755 52.8313 40.8256C53.5797 40.0757 54 39.0595 54 38V29.864C52.2729 29.3957 50.748 28.3718 49.6608 26.9505C48.5736 25.5292 47.9845 23.7895 47.9845 22C47.9845 20.2105 48.5736 18.4708 49.6608 17.0495C50.748 15.6282 52.2729 14.6043 54 14.136V6C54 4.94052 53.5797 3.92431 52.8313 3.1744C52.0828 2.42448 51.0675 2.00212 50.008 2H5.992C4.93252 2.00212 3.91716 2.42448 3.16874 3.1744C2.42033 3.92431 2 4.94052 2 6V14.12C3.74088 14.5779 5.28113 15.5994 6.38024 17.0249C7.47935 18.4505 8.07544 20.1999 8.07544 22C8.07544 23.8001 7.47935 25.5495 6.38024 26.9751C5.28113 28.4006 3.74088 29.4221 2 29.88V38Z" stroke="#3D3D3D" stroke-width="4" stroke-linecap="round" stroke-linejoin="round"/>
<path d="M20.0801 15.9998C20.6105 15.9998 21.1192 15.789 21.4943 15.414C21.8694 15.0389 22.0801 14.5302 22.0801 13.9998C22.0801 13.4693 21.8694 12.9606 21.4943 12.5855C21.1192 12.2105 20.6105 11.9998 20.0801 11.9998C19.5496 11.9998 19.0409 12.2105 18.6659 12.5855C18.2908 12.9606 18.0801 13.4693 18.0801 13.9998C18.0801 14.5302 18.2908 15.0389 18.6659 15.414C19.0409 15.789 19.5496 15.9998 20.0801 15.9998ZM36.0801 31.9998C36.6105 31.9998 37.1192 31.789 37.4943 31.414C37.8694 31.0389 38.0801 30.5302 38.0801 29.9998C38.0801 29.4693 37.8694 28.9606 37.4943 28.5855C37.1192 28.2105 36.6105 27.9998 36.0801 27.9998C35.5496 27.9998 35.0409 28.2105 34.6659 28.5855C34.2908 28.9606 34.0801 29.4693 34.0801 29.9998C34.0801 30.5302 34.2908 31.0389 34.6659 31.414C35.0409 31.789 35.5496 31.9998 36.0801 31.9998Z" stroke="#3D3D3D" stroke-width="4" stroke-linecap="round" stroke-linejoin="round"/>
</svg>
