<svg width="101" height="96" viewBox="0 0 101 96" fill="none" xmlns="http://www.w3.org/2000/svg">
<path d="M97.3868 74.4733C99.0828 76.1981 99.945 78.1766 99.9974 80.4285L62.3241 94.5032L29.5848 85.1491V43.2631H38.2606L72.7139 56.0114C73.8765 56.4743 74.7134 57.1087 75.2625 57.8972C75.8116 58.6856 76.0994 59.6659 76.0994 60.8662C76.0994 62.2195 75.6154 63.3947 74.6252 64.414C73.6461 65.4219 72.4116 65.9598 70.8878 66.0204H57.686L49.4572 62.87L48.977 62.6861L48.8067 63.1713L47.2387 67.6377L47.0731 68.1095L47.5449 68.2751L57.4279 71.7437L57.5083 71.7719H57.5935H90.8537C93.4472 71.7719 95.6142 72.6707 97.3868 74.4733ZM71.4737 6.17591L71.8531 6.60411L72.2267 6.1707C75.4883 2.38599 79.6257 0.5 84.6768 0.5C88.8454 0.5 92.3568 2.02576 95.2409 5.09391C98.1388 8.17678 99.67 11.7041 99.8567 15.6912C99.853 18.8 98.3371 22.5894 95.1954 27.0819C92.0405 31.5934 88.9394 35.3541 85.8931 38.369C82.8805 41.3506 78.1993 45.7564 71.8463 51.5889C65.4306 45.7555 60.7024 41.3492 57.6583 38.3672C54.5818 35.3534 51.4816 31.594 48.3592 27.0838C45.2459 22.5869 43.7787 18.7968 43.8391 15.6895L43.8391 15.6895V15.6798C43.8391 11.5061 45.3214 7.9932 48.296 5.11052C51.2767 2.22199 54.8627 0.68697 59.0774 0.500003C63.9934 0.502794 68.1154 2.38629 71.4737 6.17591ZM1 43.2631H19.0819V94.5292H1V43.2631Z" fill="#FA6900" stroke="#FA6900"/>
</svg>
