<svg width="101" height="125" viewBox="0 0 101 125" fill="none" xmlns="http://www.w3.org/2000/svg">
<path d="M25.6346 59.6499L25.6336 59.6464L23.8511 53.7813C23.8509 53.7805 23.8507 53.7797 23.8504 53.7789C23.8365 53.7295 23.8349 53.6774 23.8456 53.6272C23.8566 53.5762 23.88 53.5286 23.914 53.4887C28.9619 47.5627 32.7377 40.5373 35.1219 32.5809C35.1358 32.5379 35.1586 32.4983 35.1888 32.4646C35.2196 32.4303 35.2574 32.4028 35.2998 32.3842C35.3421 32.3656 35.388 32.3562 35.4344 32.3567C35.4805 32.3572 35.5259 32.3675 35.5677 32.3868C35.5679 32.3869 35.5681 32.387 35.5684 32.3871L40.7806 34.841C40.781 34.8413 40.7815 34.8415 40.782 34.8417C40.9152 34.9067 40.9829 35.0594 40.9301 35.2125L40.9276 35.2196L40.9254 35.2268C39.7821 38.8917 38.2738 42.4329 36.4229 45.7973L36.361 45.9099V46.0383V81.522C36.361 81.839 36.0989 82.1017 35.7796 82.1017H30.7377C30.4184 82.1017 30.1564 81.839 30.1564 81.522V56.6065V55.2431L29.2749 56.2832C28.2378 57.507 27.2047 58.6859 26.1739 59.7687C25.9954 59.9506 25.6968 59.8599 25.6346 59.6499ZM55.1089 53.8801V53.3801H54.6089H45.7011C45.3818 53.3801 45.1198 53.1174 45.1198 52.8003V35.6321C45.1198 35.3151 45.3818 35.0524 45.7011 35.0524H70.6672C70.9865 35.0524 71.2486 35.3151 71.2486 35.6321V52.8273C71.2486 53.1443 70.9865 53.4071 70.6672 53.4071H61.6513H61.1513V53.9071V56.4175V56.9175H61.6513H75.0062C75.3255 56.9175 75.5876 57.1803 75.5876 57.4973V62.3022C75.5876 62.6192 75.3255 62.882 75.0062 62.882H67.0311H66.1306L66.6067 63.6463C69.0901 67.633 72.3388 71.0795 76.5066 74.1631L76.5092 74.1651C76.633 74.2554 76.672 74.4523 76.5646 74.597L73.0114 79.3591C73.0113 79.3593 73.0112 79.3594 73.011 79.3596C72.9055 79.4995 72.6872 79.5207 72.5544 79.3932L72.5543 79.3931C68.4619 75.467 64.9526 70.6812 62.0964 65.0978L61.1513 65.3256V81.495C61.1513 81.812 60.8893 82.0747 60.5699 82.0747H55.6768C55.3574 82.0747 55.0954 81.812 55.0954 81.495V65.2986L54.1465 65.0783C51.2109 71.0613 47.5872 75.8748 43.3775 79.4398L43.3774 79.4397L43.3687 79.4474C43.2444 79.5578 43.0235 79.5333 42.9237 79.3708L42.9215 79.3672L39.8396 74.4408L39.8381 74.4385C39.7957 74.3715 39.7807 74.2909 39.7961 74.2133C39.8114 74.1357 39.856 74.0667 39.921 74.0207L39.9211 74.0207C43.8428 71.2412 47.0379 67.8309 49.6539 63.6188L50.1282 62.855H49.2291H41.7812C41.4619 62.855 41.1998 62.5923 41.1998 62.2752V57.4703C41.1998 57.1533 41.4619 56.8905 41.7812 56.8905H54.6089H55.1089V56.3905V53.8801ZM67.6219 63.382C67.566 63.2941 67.5106 63.206 67.4555 63.1176L67.0311 63.382V63.882H67.3485C69.7528 67.5993 72.8572 70.841 76.804 73.7612C77.1554 74.0176 77.2365 74.5305 76.9662 74.8949L67.6219 63.382ZM51.5811 40.9088H51.0811V41.4088V47.0236V47.5236H51.5811H64.8143H65.3143V47.0236V41.4088V40.9088H64.8143H51.5811ZM52.3929 0.756685L52.3932 0.756783L98.3207 16.3851C98.3212 16.3853 98.3218 16.3855 98.3224 16.3857C98.7674 16.5414 99.1976 16.8854 99.5152 17.3339C99.8332 17.7832 100.01 18.2976 99.9995 18.763L99.9994 18.763V18.7743V83.884C99.9994 84.388 99.8345 85.004 99.5484 85.5894C99.2623 86.1748 98.8793 86.6801 98.4888 86.9854C98.4887 86.9855 98.4885 86.9856 98.4884 86.9857L51.8958 123.238L51.8922 123.241C51.5349 123.524 51.0279 123.686 50.4997 123.686C49.9763 123.686 49.479 123.527 49.103 123.238C49.1026 123.237 49.1021 123.237 49.1017 123.237L2.51453 86.9885C2.5138 86.9879 2.51307 86.9873 2.51235 86.9867C2.1201 86.6738 1.73686 86.1641 1.45104 85.5793C1.16449 84.993 1 84.3805 1 83.884V18.7743C1 18.304 1.18496 17.7824 1.50711 17.33C1.82936 16.8775 2.2594 16.5355 2.70069 16.3868L2.70215 16.3863L48.6332 0.756783L48.6335 0.756685C49.1186 0.591283 49.803 0.5 50.5132 0.5C51.2234 0.5 51.9078 0.591283 52.3929 0.756685ZM91.1012 81.6871L91.2942 81.537V81.2925V23.5793V23.2213L90.9553 23.106L50.6744 9.39299L50.5132 9.33814L50.3521 9.39299L10.0712 23.106L9.7323 23.2213V23.5793V81.2925V81.537L9.92527 81.6871L50.2062 113.027L50.5132 113.266L50.8203 113.027L91.1012 81.6871Z" fill="#FA6900" stroke="#FA6900"/>
</svg>
