<svg width="89" height="80" viewBox="0 0 89 80" fill="none" xmlns="http://www.w3.org/2000/svg">
<path d="M0 9.99947C0 7.34745 1.05088 4.80404 2.92145 2.92878C4.79203 1.05351 7.32907 0 9.97446 0H75.9593C78.6047 0 81.1418 1.05351 83.0124 2.92878C84.8829 4.80404 85.9338 7.34745 85.9338 9.99947V31.1461C85.7977 31.0784 85.6606 31.0128 85.5225 30.9491L83.942 30.2169C82.6402 29.6118 81.2299 29.2769 79.7957 29.2323V9.99947C79.7957 7.87651 78.077 6.15352 75.9593 6.15352H9.97446C7.85681 6.15352 6.13813 7.87651 6.13813 9.99947V63.8428C6.13813 65.9658 7.85681 67.6887 9.97446 67.6887H18.4144V56.9201C18.4144 54.8801 19.2228 52.9236 20.6617 51.4811C22.1006 50.0386 24.0521 49.2282 26.087 49.2282H59.8468C60.8543 49.2282 61.8521 49.4271 62.783 49.8137C63.7138 50.2002 64.5597 50.7668 65.2721 51.4811C65.9846 52.1953 66.5498 53.0433 66.9354 53.9765C67.321 54.9097 67.5194 55.91 67.5194 56.9201V59.2215L65.3496 58.6523C63.6796 58.2128 61.9195 58.257 60.2735 58.7798C58.6275 59.3026 57.1632 60.2826 56.0503 61.606L53.1777 65.0181C52.1606 66.2245 51.4204 67.6401 51.0094 69.165C50.5984 70.6898 50.5266 72.2865 50.7992 73.8423H9.97446C8.6646 73.8423 7.36756 73.5836 6.1574 73.0811C4.94724 72.5786 3.84767 71.842 2.92145 70.9135C1.99524 69.985 1.26052 68.8826 0.75926 67.6694C0.257997 66.4562 0 65.1559 0 63.8428V9.99947ZM42.9669 43.0747C47.0367 43.0747 50.9399 41.4539 53.8177 38.5688C56.6955 35.6838 58.3122 31.7709 58.3122 27.6908C58.3122 23.6108 56.6955 19.6979 53.8177 16.8129C50.9399 13.9278 47.0367 12.307 42.9669 12.307C38.8971 12.307 34.9939 13.9278 32.1161 16.8129C29.2383 19.6979 27.6216 23.6108 27.6216 27.6908C27.6216 31.7709 29.2383 35.6838 32.1161 38.5688C34.9939 41.4539 38.8971 43.0747 42.9669 43.0747ZM72.2765 42.1916L73.7465 37.9518C74.0208 37.148 74.4603 36.4109 75.0368 35.7882C75.6132 35.1655 76.3136 34.671 77.0927 34.3369C77.8719 34.0028 78.7123 33.8364 79.5596 33.8486C80.4069 33.8607 81.2423 34.0511 82.0115 34.4074L83.5921 35.1397C86.1701 36.3304 88.3307 38.4657 88.7481 41.3024C90.8105 55.194 79.9062 74.4084 67.0499 79.5373C64.4258 80.5834 61.5255 79.7527 59.2237 78.0759L57.812 77.0482C57.122 76.5454 56.5424 75.9057 56.1092 75.169C55.676 74.4322 55.3984 73.6141 55.2937 72.7654C55.1889 71.9167 55.2593 71.0554 55.5003 70.2351C55.7413 69.4147 56.1479 68.6527 56.6948 67.9964L59.5705 64.5812C60.7 63.2397 62.4861 62.6736 64.1833 63.1167L70.3859 64.7474C75.0755 61.6737 77.5553 57.3047 77.8253 51.6404L73.3353 46.9883C72.7336 46.3645 72.3161 45.5857 72.1292 44.7384C71.9423 43.8912 71.9933 43.0116 72.2765 42.1916Z" fill="#FA6900"/>
</svg>
